PathFileType	4	(X/Y/Z)	 control3min.trc
DataRate	CameraRate	NumFrames	NumMarkers	Units	OrigDataRate	OrigDataStartFrame	OrigNumFrames
200	200	8	43	m	200	751	1000
Frame#	Time	C7			LSH			RSH			MAN			RASI			LASI			HIPR			HIPL			RPSI			LPSI			COX			RTHI1			RTHI2			RTHI3			RTHI4			RLKN			RMKN			RSHA1			RSHA2			RSHA3			RSHA4			RLMAL			RMMAL			RHEEL			RMET5			RMET1			RTOE			LTHI1			LTHI2			LTHI3			LTHI4			LLKN			LMKN			LSHA1			LSHA2			LSHA3			LSHA4			LLMAL			LMMAL			LHEEL			LMET5			LMET1			LTOE			
		X1	Y1	Z1	X2	Y2	Z2	X3	Y3	Z3	X4	Y4	Z4	X5	Y5	Z5	X6	Y6	Z6	X7	Y7	Z7	X8	Y8	Z8	X9	Y9	Z9	X10	Y10	Z10	X11	Y11	Z11	X12	Y12	Z12	X13	Y13	Z13	X14	Y14	Z14	X15	Y15	Z15	X16	Y16	Z16	X17	Y17	Z17	X18	Y18	Z18	X19	Y19	Z19	X20	Y20	Z20	X21	Y21	Z21	X22	Y22	Z22	X23	Y23	Z23	X24	Y24	Z24	X25	Y25	Z25	X26	Y26	Z26	X27	Y27	Z27	X28	Y28	Z28	X29	Y29	Z29	X30	Y30	Z30	X31	Y31	Z31	X32	Y32	Z32	X33	Y33	Z33	X34	Y34	Z34	X35	Y35	Z35	X36	Y36	Z36	X37	Y37	Z37	X38	Y38	Z38	X39	Y39	Z39	X40	Y40	Z40	X41	Y41	Z41	X42	Y42	Z42	X43	Y43	Z43	
751	3.7550	-0.282067	1.582007	-0.564838	-0.242388	1.543216	-0.779817	-0.206884	1.540574	-0.364180	-0.154843	1.501916	-0.570984	-0.232267	1.061699	-0.442818	-0.233721	1.056539	-0.681267	-0.311048	1.135521	-0.397189	-0.314443	1.142408	-0.725890	-0.409005	1.110223	-0.515183	-0.405169	1.110575	-0.607840	-0.409223	1.111120	-0.561224	-0.302852	0.850483	-0.357041	-0.290010	0.792265	-0.349877	-0.226291	0.801825	-0.355316	-0.231110	0.862741	-0.364098	-0.247376	0.533480	-0.360256	-0.256960	0.515844	-0.478463	-0.329893	0.372257	-0.320769	-0.347561	0.334105	-0.329277	-0.292128	0.319007	-0.351056	-0.280698	0.356295	-0.344697	-0.391888	0.153394	-0.338439	-0.364431	0.144727	-0.426558	-0.445607	0.138025	-0.381543	-0.298396	0.042976	-0.323553	-0.258297	0.052634	-0.395457	-0.231114	0.037826	-0.393937	-0.304431	0.802676	-0.753296	-0.290060	0.742802	-0.755425	-0.225709	0.752228	-0.758992	-0.232654	0.811826	-0.758086	-0.248421	0.526179	-0.737394	-0.228639	0.519090	-0.625238	-0.348081	0.355776	-0.752760	-0.363345	0.318492	-0.743957	-0.304986	0.301813	-0.735808	-0.295659	0.344000	-0.746354	-0.391575	0.139225	-0.735543	-0.371993	0.143735	-0.644006	-0.455518	0.127754	-0.691652	-0.298970	0.048932	-0.742974	-0.265206	0.054404	-0.668200	-0.239948	0.043832	-0.669538	
752	3.7600	-0.281209	1.578874	-0.564897	-0.241644	1.539306	-0.780012	-0.206142	1.537051	-0.364093	-0.154269	1.498395	-0.570981	-0.232600	1.058652	-0.442602	-0.234130	1.053616	-0.681124	-0.311527	1.132577	-0.397049	-0.315022	1.139461	-0.725651	-0.409372	1.107118	-0.514911	-0.405590	1.107532	-0.607530	-0.409652	1.108038	-0.560943	-0.302756	0.847361	-0.357144	-0.289700	0.789198	-0.349981	-0.226013	0.798982	-0.355371	-0.231054	0.859881	-0.364147	-0.246196	0.530599	-0.360378	-0.255809	0.513095	-0.478751	-0.329314	0.369642	-0.321211	-0.347089	0.331549	-0.329755	-0.291661	0.316296	-0.351484	-0.280146	0.353535	-0.345065	-0.392238	0.151049	-0.339170	-0.364611	0.142277	-0.427221	-0.445898	0.135898	-0.382351	-0.298991	0.040455	-0.323738	-0.258956	0.049884	-0.396166	-0.231771	0.035472	-0.394724	-0.303772	0.799920	-0.753235	-0.289154	0.740114	-0.755522	-0.224830	0.749806	-0.758816	-0.232006	0.809385	-0.757745	-0.247291	0.523499	-0.737410	-0.227402	0.516525	-0.625223	-0.347502	0.353446	-0.752598	-0.362925	0.316269	-0.743730	-0.304652	0.299332	-0.735522	-0.295131	0.341455	-0.746142	-0.392206	0.137246	-0.735037	-0.372483	0.141691	-0.643497	-0.456192	0.126198	-0.691091	-0.300230	0.046504	-0.742698	-0.266089	0.051693	-0.667819	-0.240865	0.040839	-0.669155	
753	3.7650	-0.280386	1.575478	-0.564963	-0.240893	1.535149	-0.780207	-0.205407	1.533306	-0.364015	-0.153716	1.494641	-0.570974	-0.232894	1.055397	-0.442379	-0.234510	1.050468	-0.680986	-0.311984	1.129425	-0.396903	-0.315629	1.136280	-0.725398	-0.409713	1.103776	-0.514622	-0.405987	1.104234	-0.607210	-0.410058	1.104703	-0.560646	-0.302662	0.844007	-0.357249	-0.289387	0.785888	-0.350091	-0.225730	0.795914	-0.355391	-0.230995	0.856791	-0.364163	-0.244976	0.527468	-0.360467	-0.254565	0.510114	-0.479003	-0.328853	0.366840	-0.321684	-0.346767	0.328819	-0.330269	-0.291357	0.313335	-0.351920	-0.279717	0.350523	-0.345429	-0.392983	0.148563	-0.339950	-0.365160	0.139720	-0.427940	-0.446568	0.133390	-0.383236	-0.299465	0.038324	-0.323735	-0.259587	0.047681	-0.396769	-0.232272	0.033814	-0.395471	-0.303132	0.796920	-0.753129	-0.288271	0.737190	-0.755605	-0.223981	0.747147	-0.758712	-0.231385	0.806705	-0.757450	-0.246147	0.520577	-0.737417	-0.226202	0.513747	-0.625171	-0.346957	0.350887	-0.752473	-0.362549	0.313826	-0.743550	-0.304365	0.296629	-0.735235	-0.294643	0.338685	-0.745931	-0.392972	0.135072	-0.734528	-0.373148	0.139441	-0.642970	-0.457010	0.124382	-0.690588	-0.301431	0.044026	-0.742506	-0.266892	0.049029	-0.667394	-0.241682	0.037846	-0.668627	
754	3.7700	-0.279597	1.571820	-0.565043	-0.240140	1.530759	-0.780398	-0.204687	1.529356	-0.363943	-0.153191	1.490671	-0.570963	-0.233147	1.051932	-0.442152	-0.234858	1.047096	-0.680854	-0.312412	1.126059	-0.396743	-0.316192	1.132824	-0.725097	-0.410028	1.100205	-0.514325	-0.406359	1.100700	-0.606887	-0.410438	1.101125	-0.560347	-0.302563	0.840421	-0.357346	-0.289074	0.782345	-0.350197	-0.225443	0.792613	-0.355384	-0.230929	0.853467	-0.364150	-0.243705	0.524087	-0.360529	-0.253204	0.506889	-0.479213	-0.328538	0.363866	-0.322195	-0.346634	0.325939	-0.330828	-0.291262	0.310134	-0.352368	-0.279432	0.347258	-0.345809	-0.394221	0.146009	-0.340752	-0.366160	0.137088	-0.428684	-0.447677	0.130526	-0.384172	-0.299809	0.036706	-0.323497	-0.260080	0.046118	-0.397110	-0.232512	0.032786	-0.396051	-0.302515	0.793687	-0.752972	-0.287416	0.734022	-0.755644	-0.223167	0.744254	-0.758685	-0.230797	0.803779	-0.757206	-0.244993	0.517402	-0.737422	-0.225049	0.510738	-0.625088	-0.346502	0.348102	-0.752391	-0.362273	0.311152	-0.743416	-0.304180	0.293706	-0.734947	-0.294253	0.335688	-0.745731	-0.393899	0.132696	-0.734020	-0.374053	0.137018	-0.642442	-0.458011	0.122246	-0.690155	-0.302477	0.041618	-0.742445	-0.267529	0.046623	-0.666970	-0.242290	0.035105	-0.667982	
755	3.7750	-0.278844	1.567908	-0.565146	-0.239408	1.526167	-0.780593	-0.203974	1.525224	-0.363882	-0.152699	1.486461	-0.570964	-0.233359	1.048263	-0.441921	-0.235164	1.043506	-0.680721	-0.312802	1.122468	-0.396562	-0.316748	1.129110	-0.724769	-0.410322	1.096403	-0.514022	-0.406698	1.096941	-0.606574	-0.410794	1.097314	-0.560051	-0.302456	0.836608	-0.357419	-0.288755	0.778578	-0.350292	-0.225147	0.789092	-0.355362	-0.230856	0.849924	-0.364111	-0.242373	0.520458	-0.360573	-0.251733	0.503423	-0.479366	-0.328408	0.360747	-0.322759	-0.346730	0.322948	-0.331452	-0.291423	0.306707	-0.352831	-0.279321	0.343753	-0.346204	-0.395918	0.143444	-0.341539	-0.367614	0.134410	-0.429430	-0.449193	0.127396	-0.385143	-0.300105	0.035528	-0.323136	-0.260457	0.045148	-0.397056	-0.232598	0.032251	-0.396369	-0.301930	0.790214	-0.752773	-0.286604	0.730613	-0.755639	-0.222400	0.741104	-0.758707	-0.230252	0.800597	-0.757019	-0.243840	0.513982	-0.737437	-0.223948	0.507490	-0.624990	-0.346181	0.345098	-0.752358	-0.362146	0.308258	-0.743328	-0.304150	0.290561	-0.734674	-0.294002	0.332476	-0.745551	-0.395024	0.130139	-0.733524	-0.375241	0.134452	-0.641927	-0.459224	0.119766	-0.689799	-0.303311	0.039434	-0.742587	-0.267941	0.044673	-0.666606	-0.242605	0.032842	-0.667248	
756	3.7800	-0.278121	1.563755	-0.565280	-0.238690	1.521385	-0.780788	-0.203277	1.520882	-0.363831	-0.152233	1.482030	-0.570979	-0.233536	1.044408	-0.441684	-0.235425	1.039711	-0.680580	-0.313149	1.118649	-0.396351	-0.317267	1.125137	-0.724410	-0.410602	1.092384	-0.513716	-0.407008	1.092969	-0.606260	-0.411132	1.093278	-0.559757	-0.302340	0.832577	-0.357457	-0.288428	0.774603	-0.350367	-0.224845	0.785372	-0.355326	-0.230777	0.846184	-0.364044	-0.240983	0.516586	-0.360613	-0.250131	0.499738	-0.479466	-0.328495	0.357519	-0.323401	-0.347076	0.319877	-0.332163	-0.291825	0.303101	-0.353290	-0.279406	0.340055	-0.346594	-0.397954	0.140881	-0.342290	-0.369410	0.131757	-0.430183	-0.451036	0.124164	-0.386110	-0.300566	0.034597	-0.322653	-0.260893	0.044588	-0.396675	-0.232731	0.032037	-0.396445	-0.301389	0.786502	-0.752542	-0.285851	0.726954	-0.755586	-0.221698	0.737695	-0.758776	-0.229756	0.797152	-0.756895	-0.242693	0.510314	-0.737480	-0.222900	0.503986	-0.624894	-0.346017	0.341912	-0.752376	-0.362200	0.305181	-0.743289	-0.304313	0.287211	-0.734420	-0.293919	0.329061	-0.745396	-0.396392	0.127437	-0.733066	-0.376748	0.131789	-0.641439	-0.460662	0.116972	-0.689537	-0.303924	0.037546	-0.742976	-0.268148	0.043259	-0.666436	-0.242671	0.031150	-0.666546	
757	3.7850	-0.277449	1.559395	-0.565442	-0.237998	1.516434	-0.780986	-0.202614	1.516383	-0.363790	-0.151777	1.477397	-0.571010	-0.233684	1.040385	-0.441439	-0.235643	1.035721	-0.680426	-0.313447	1.114602	-0.396107	-0.317695	1.120876	-0.723984	-0.410873	1.088166	-0.513417	-0.407293	1.088796	-0.605953	-0.411456	1.089034	-0.559465	-0.302210	0.828369	-0.357455	-0.288088	0.770447	-0.350411	-0.224534	0.781475	-0.355271	-0.230687	0.842269	-0.363945	-0.239549	0.512519	-0.360655	-0.248384	0.495842	-0.479508	-0.328802	0.354229	-0.324115	-0.347658	0.316761	-0.332942	-0.292445	0.299397	-0.353721	-0.279728	0.336238	-0.346992	-0.400235	0.138364	-0.343003	-0.371434	0.129140	-0.430940	-0.453106	0.120934	-0.387036	-0.301293	0.033810	-0.322049	-0.261535	0.044262	-0.396165	-0.233020	0.031921	-0.396352	-0.300900	0.782554	-0.752299	-0.285176	0.723055	-0.755497	-0.221069	0.734026	-0.758885	-0.229321	0.793449	-0.756837	-0.241549	0.506411	-0.737551	-0.221898	0.500227	-0.624827	-0.346014	0.338570	-0.752441	-0.362442	0.301961	-0.743285	-0.304679	0.283679	-0.734181	-0.294012	0.325467	-0.745268	-0.397978	0.124636	-0.732674	-0.378553	0.129058	-0.641011	-0.462315	0.113916	-0.689379	-0.304420	0.035896	-0.743585	-0.268326	0.042268	-0.666460	-0.242680	0.029978	-0.666047	
758	3.7900	-0.276831	1.554860	-0.565632	-0.237336	1.511330	-0.781184	-0.201976	1.511736	-0.363759	-0.151326	1.472565	-0.571060	-0.233811	1.036200	-0.441177	-0.235820	1.031558	-0.680252	-0.313699	1.110330	-0.395824	-0.318071	1.116332	-0.723543	-0.411144	1.083759	-0.513128	-0.407555	1.084441	-0.605659	-0.411770	1.084601	-0.559184	-0.302059	0.824012	-0.357409	-0.287737	0.766146	-0.350417	-0.224213	0.777420	-0.355184	-0.230580	0.838199	-0.363804	-0.238104	0.508302	-0.360701	-0.246483	0.491757	-0.479491	-0.329294	0.350941	-0.324871	-0.348435	0.313663	-0.333753	-0.293258	0.295691	-0.354096	-0.280255	0.332383	-0.347392	-0.402633	0.135914	-0.343720	-0.373580	0.126552	-0.431702	-0.455297	0.117770	-0.387892	-0.302237	0.033112	-0.321439	-0.262305	0.044065	-0.395673	-0.233439	0.031825	-0.396162	-0.300480	0.778381	-0.752061	-0.284594	0.718915	-0.755384	-0.220529	0.730104	-0.759027	-0.228959	0.789491	-0.756849	-0.240405	0.502303	-0.737666	-0.220925	0.496210	-0.624817	-0.346144	0.335119	-0.752541	-0.362845	0.298643	-0.743306	-0.305223	0.280004	-0.733974	-0.294250	0.321722	-0.745182	-0.399736	0.121767	-0.732379	-0.380595	0.126295	-0.640673	-0.464145	0.110680	-0.689347	-0.304953	0.034432	-0.744369	-0.268614	0.041602	-0.666614	-0.242753	0.029259	-0.665727	
